<?xml version="1.0" encoding="UTF-8"?>
<svg width="512" height="512" viewBox="0 0 512 512" fill="none" xmlns="http://www.w3.org/2000/svg">
  <!-- 背景圆形 -->
  <circle cx="256" cy="256" r="248" fill="#EFF6FF" stroke="#3B82F6" stroke-width="16"/>
  
  <!-- 云朵 -->
  <path d="M340 180C340 180 372 180 388 204C388 204 436 208 436 260C436 312 388 316 388 316H124C124 316 76 312 76 260C76 208 124 204 124 204C140 180 172 180 172 180C172 180 180 132 232 132C284 132 292 180 292 180C292 180 316 156 340 180Z" fill="#93C5FD" stroke="#3B82F6" stroke-width="8" stroke-linejoin="round"/>
  
  <!-- 冰雹 -->
  <circle cx="172" cy="356" r="24" fill="#BFDBFE" stroke="#3B82F6" stroke-width="4"/>
  <circle cx="256" cy="380" r="28" fill="#BFDBFE" stroke="#3B82F6" stroke-width="4"/>
  <circle cx="340" cy="356" r="24" fill="#BFDBFE" stroke="#3B82F6" stroke-width="4"/>
  
  <!-- 防护网格 -->
  <line x1="124" y1="260" x2="388" y2="260" stroke="#2563EB" stroke-width="6" stroke-dasharray="12 8"/>
  <line x1="124" y1="300" x2="388" y2="300" stroke="#2563EB" stroke-width="6" stroke-dasharray="12 8"/>
  <line x1="180" y1="204" x2="180" y2="316" stroke="#2563EB" stroke-width="6" stroke-dasharray="12 8"/>
  <line x1="256" y1="204" x2="256" y2="316" stroke="#2563EB" stroke-width="6" stroke-dasharray="12 8"/>
  <line x1="332" y1="204" x2="332" y2="316" stroke="#2563EB" stroke-width="6" stroke-dasharray="12 8"/>
</svg> 